<?xml version="1.0" encoding="utf-8"?>
<!-- Generated by IcoMoon.io -->
<!DOCTYPE svg PUBLIC "-//W3C//DTD SVG 1.1//EN" "http://www.w3.org/Graphics/SVG/1.1/DTD/svg11.dtd">
<svg version="1.1" xmlns="http://www.w3.org/2000/svg" xmlns:xlink="http://www.w3.org/1999/xlink" width="32" height="32" viewBox="0 0 32 32">
<g>
</g>
	<path d="M18.214 5.46c-2.139 0-4.139 0.832-5.63 2.342s-2.298 3.52-2.271 5.66c0.018 1.53 0.465 3.014 1.299 4.316l-6.098 6.098 2.664 2.664 6.12-6.118c1.267 0.776 2.713 1.194 4.285 1.212v0c2.139 0 4.139-0.831 5.629-2.34 1.492-1.51 2.299-3.521 2.273-5.662-0.053-4.451-3.718-8.116-8.271-8.172zM18.259 8.303v0c2.9 0.036 5.348 2.422 5.381 5.319 0.018 1.383-0.503 2.682-1.465 3.656-0.962 0.974-2.252 1.51-3.7 1.51h-0.001c-2.898-0.033-5.284-2.42-5.319-5.318-0.018-1.383 0.504-2.682 1.467-3.656s2.253-1.511 3.637-1.511z" fill="#000000" />
</svg>
