<?xml version="1.0" encoding="utf-8"?>
<!-- Generated by IcoMoon.io -->
<!DOCTYPE svg PUBLIC "-//W3C//DTD SVG 1.1//EN" "http://www.w3.org/Graphics/SVG/1.1/DTD/svg11.dtd">
<svg version="1.1" xmlns="http://www.w3.org/2000/svg" xmlns:xlink="http://www.w3.org/1999/xlink" width="32" height="32" viewBox="0 0 32 32">
<g>
</g>
	<path d="M23.021 4.709l-0.943-0.945c-0.132-0.132-0.398-0.24-0.586-0.24h-10.985c-0.19 0-0.453 0.108-0.587 0.24l-0.941 0.945c-0.136 0.132-0.244 0.396-0.244 0.583v21.416c0 0.188 0.108 0.451 0.243 0.586l0.941 0.942c0.134 0.132 0.398 0.241 0.587 0.241h10.985c0.188 0 0.453-0.108 0.586-0.241l0.943-0.942c0.134-0.134 0.243-0.398 0.243-0.586v-21.416c0.001-0.187-0.108-0.452-0.242-0.583zM17.358 26.052h-2.716v-2.714h2.716v2.714zM20.69 14.046v6.771h-9.379v-14.72h9.378l0 7.948z" fill="#000000" />
</svg>
