<?xml version="1.0" encoding="utf-8"?>
<!-- Generated by IcoMoon.io -->
<!DOCTYPE svg PUBLIC "-//W3C//DTD SVG 1.1//EN" "http://www.w3.org/Graphics/SVG/1.1/DTD/svg11.dtd">
<svg version="1.1" xmlns="http://www.w3.org/2000/svg" xmlns:xlink="http://www.w3.org/1999/xlink" width="32" height="32" viewBox="0 0 32 32">
<g>
</g>
	<path d="M15.931 1.917c5.682 0 10.795 4.605 10.795 10.286 0 5.445-10.915 17.88-10.915 17.88s-10.537-12.611-10.537-17.88c0-5.681 4.975-10.286 10.657-10.286zM10.421 12.083c0 0 0 0 0 0 0 3.081 2.498 5.579 5.579 5.579 3.081 0 5.579-2.498 5.579-5.579 0 0 0 0 0 0 0 0 0 0 0 0 0-3.081-2.498-5.579-5.579-5.579-3.081 0-5.579 2.498-5.579 5.579 0 0 0 0 0 0z" fill="#000000" />
</svg>
